<?xml version="1.0" encoding="UTF-8"?>
<svg id="Layer_1" data-name="Layer 1" xmlns="http://www.w3.org/2000/svg" xmlns:xlink="http://www.w3.org/1999/xlink" viewBox="0 0 449.91 247.55">
  <defs>
    <style>
      .cls-1 {
        fill: url(#Black_Hole_Gradient);
      }

      .cls-1, .cls-2 {
        fill-rule: evenodd;
      }

      .cls-3 {
        fill: #231f20;
        stroke: #231f20;
      }

      .cls-3, .cls-4 {
        stroke-miterlimit: 10;
      }

      .cls-2 {
        fill: url(#Black_Hole_Gradient-2);
      }

      .cls-4 {
        fill: none;
        stroke: url(#linear-gradient);
        stroke-width: 2px;
      }
    </style>
    <linearGradient id="Black_Hole_Gradient" data-name="Black Hole Gradient" x1="102.29" y1="186.72" x2="338.48" y2="186.72" gradientUnits="userSpaceOnUse">
      <stop offset="0" stop-color="#fff33b"/>
      <stop offset=".04" stop-color="#fee62d"/>
      <stop offset=".12" stop-color="#fdd51b"/>
      <stop offset=".2" stop-color="#fdca0f"/>
      <stop offset=".28" stop-color="#fdc70c"/>
      <stop offset=".5" stop-color="#f3903f"/>
      <stop offset="1" stop-color="#662504"/>
    </linearGradient>
    <linearGradient id="linear-gradient" x1="142.21" y1="131.03" x2="298.47" y2="131.03" gradientUnits="userSpaceOnUse">
      <stop offset="0" stop-color="#fff33b"/>
      <stop offset=".04" stop-color="#fee62d"/>
      <stop offset=".12" stop-color="#fdd51b"/>
      <stop offset=".2" stop-color="#fdca0f"/>
      <stop offset=".28" stop-color="#fdc70c"/>
      <stop offset="1" stop-color="#f3903f"/>
    </linearGradient>
    <linearGradient id="Black_Hole_Gradient-2" data-name="Black Hole Gradient" x1="0" y1="82.05" x2="449.91" y2="82.05" xlink:href="#Black_Hole_Gradient"/>
  </defs>
  <path class="cls-1" d="M110.39,126.67c-8.4,3.62-8.87,18.87-7.52,27.55,2.02,12.96,5.17,22.84,13.94,35.73,4.48,6.59,9.49,12.78,15.02,18.6,64.3,69.11,172.71,43.17,204.62-52.62,3.19-9.09,2.79-14.36-2.44-20.73-3.18-4.4-8.35-7.26-14.14-4.3-14.58,8.04-15.61,20.83-24.7,35.43-21.76,39.01-64.98,56.91-103.22,40.98-4.48-1.8-8.74-3.92-12.8-6.39-4.33-2.63-17.1-10.87-29.21-28.46-14.07-20.43-10.47-29.08-24.11-39.84-3.29-2.6-8.53-8.93-15.43-5.96Z"/>
  <ellipse class="cls-3" cx="220.34" cy="131.03" rx="77.13" ry="77.38"/>
  <ellipse class="cls-4" cx="220.34" cy="131.03" rx="77.13" ry="77.38"/>
  <path class="cls-2" d="M.16,118.86c-3.2,20.09,42.95,28.88,57.6,32.38,39.66,7.86,80.01,9.81,120.07,12.1,9.27.49,18.34.68,27.87.72,22.05-.12,44.49.46,65.78-.83,18.62-.86,39.08-1.44,57.78-3.49,21.64-1.96,43.09-4.16,64.57-8.87,14.71-3.21,29.75-6.94,43.19-13.86,21.79-12.1,13.42-27.65-6.31-35.64-19.6-8.74-43.63-9.68-62.86-19.51-17.15-8.05-29.05-22.86-41.97-36.52C302.94,20.69,273.78,2.87,239.57.62c-35.33-2.75-66.33,3.29-94.69,25.53-12.16,9.2-21.73,20.24-31.93,31.34-10.15,11.34-22.1,21.24-36.41,26.95C57.49,93.1,5.8,96.48.19,118.72l-.03.14ZM120.77,116.8c2.32-9.4,10.76-14.97,17.63-22.12,2.68-2.61,5.28-5.28,7.89-7.96,8.5-8.68,16.08-16.97,25.89-23.88,17.36-12.5,39.59-16.38,60.67-13.66,29.09,3.72,45.23,20.64,64.55,40.61,6.58,7.6,22.45,18.55,22.25,28.66-2.23,13.05-28.72,14.24-39.56,15.84-12.85,1.3-23.07,2.39-35.93,2.77-25.38.68-53.14.54-78.58-2.29-11.03-1.51-46.16-2.96-44.83-17.85l.02-.13Z"/>
</svg>